<svg xmlns="http://www.w3.org/2000/svg" viewBox="0 0 100 100" width="100" height="100">
  <path d="M50 85c-19.3 0-35-15.7-35-35s15.7-35 35-35 35 15.7 35 35-15.7 35-35 35zm0-62c-14.9 0-27 12.1-27 27s12.1 27 27 27 27-12.1 27-27-12.1-27-27-27z" fill="#339966"/>
  <path d="M50 15c-19.3 0-35 15.7-35 35h8c0-14.9 12.1-27 27-27s27 12.1 27 27h8c0-19.3-15.7-35-35-35z" fill="#006699"/>
  <circle cx="50" cy="50" r="12" fill="#339966"/>
  <path d="M50 23V8" stroke="#990000" stroke-width="6" stroke-linecap="round"/>
</svg>
